<?xml version="1.0" encoding="iso-8859-1"?>
<!-- Generator: Adobe Illustrator 19.0.0, SVG Export Plug-In . SVG Version: 6.00 Build 0)  -->
<svg version="1.1" id="Layer_1" xmlns="http://www.w3.org/2000/svg" xmlns:xlink="http://www.w3.org/1999/xlink" x="0px" y="0px"
	 viewBox="0 0 512.001 512.001" style="enable-background:new 0 0 512.001 512.001;" xml:space="preserve">
<polygon style="fill:#DBA946;" points="174.008,35.339 337.852,104.971 396.177,267.22 337.852,478.165 174.008,406.027 
	135.159,351.188 "/>
<g>
	<polygon style="fill:#FED159;" points="501.697,35.339 337.852,104.971 337.852,478.165 501.697,406.027 	"/>
	<polygon style="fill:#FED159;" points="174.021,35.339 10.178,104.971 10.178,478.165 174.021,406.027 	"/>
</g>
<circle style="fill:#72C5D5;" cx="347.904" cy="308.431" r="63.491"/>
<circle style="fill:#EE4948;" cx="91.891" cy="179.4" r="21.846"/>
<path d="M418.338,188.042c2,2,4.622,3,7.242,3s5.242-0.999,7.242-3l8.673-8.673l8.673,8.673c2,2,4.622,3,7.242,3
	c2.62,0,5.242-0.999,7.242-3c3.999-3.999,3.999-10.482,0-14.481l-8.674-8.674l8.674-8.674c3.999-3.999,3.999-10.482,0-14.481
	c-4.001-3.999-10.484-3.999-14.483,0l-8.673,8.673l-8.673-8.673c-4.001-3.999-10.484-3.999-14.483,0
	c-3.999,3.999-3.999,10.482,0,14.481l8.674,8.674l-8.674,8.674C414.338,177.56,414.338,184.043,418.338,188.042z"/>
<path d="M507.41,27.301c-2.865-1.895-6.492-2.23-9.655-0.883L337.92,94.347l-159.834-67.93c-2.56-1.087-5.451-1.087-8.011,0
	L6.234,96.048C2.455,97.655,0,101.365,0,105.474V476.16c0,3.437,1.724,6.644,4.59,8.541c1.7,1.125,3.67,1.7,5.651,1.7
	c1.356,0,2.719-0.269,4.005-0.815l159.835-67.93l159.835,67.93c2.56,1.087,5.451,1.087,8.011,0l163.84-69.631
	c3.781-1.607,6.234-5.317,6.234-9.425V35.841C512,32.404,510.277,29.197,507.41,27.301z M491.519,399.754l-143.364,60.93v-56.17
	c0-5.655-4.584-10.24-10.24-10.24s-10.24,4.585-10.24,10.24v56.166l-143.353-60.925V373.11c0-5.655-4.584-10.24-10.24-10.24
	c-5.657,0-10.24,4.585-10.24,10.24v26.644L20.481,460.682V112.249l153.599-65.28l159.835,67.93c2.56,1.087,5.451,1.087,8.011,0
	L491.52,51.322v348.432H491.519z"/>
<path d="M327.674,138.944v72.366c0,5.655,4.584,10.24,10.24,10.24s10.24-4.585,10.24-10.24v-72.366c0-5.655-4.584-10.24-10.24-10.24
	S327.674,133.288,327.674,138.944z"/>
<path d="M174.08,94.568c-5.657,0-10.24,4.585-10.24,10.24v229.387c0,5.655,4.584,10.24,10.24,10.24c5.657,0,10.24-4.585,10.24-10.24
	V104.809C184.321,99.153,179.737,94.568,174.08,94.568z"/>
<path d="M274.234,308.936c0,40.656,33.077,73.732,73.732,73.732s73.732-33.075,73.732-73.732s-33.077-73.732-73.732-73.732
	S274.234,268.281,274.234,308.936z M401.216,308.936c0,29.363-23.888,53.251-53.251,53.251s-53.251-23.888-53.251-53.251
	s23.888-53.251,53.251-53.251S401.216,279.574,401.216,308.936z"/>
<path d="M326.755,279.621c-4.581,3.315-5.609,9.718-2.294,14.3l30.413,42.037c2.003,2.768,5.131,4.238,8.304,4.238
	c2.08,0,4.181-0.632,5.995-1.944c4.581-3.315,5.609-9.718,2.294-14.3l-30.413-42.037
	C337.737,277.334,331.337,276.306,326.755,279.621z"/>
<path d="M91.953,147.819c-17.693,0-32.087,14.394-32.087,32.087c0,14.113,9.162,26.117,21.846,30.402v33.772
	c0,5.655,4.584,10.24,10.24,10.24s10.24-4.585,10.24-10.24v-33.772c12.685-4.285,21.846-16.289,21.846-30.402
	C124.04,162.213,109.646,147.819,91.953,147.819z M91.953,191.512c-6.4,0-11.606-5.206-11.606-11.606
	c0-6.4,5.206-11.606,11.606-11.606c6.4,0,11.606,5.206,11.606,11.606C103.559,186.305,98.351,191.512,91.953,191.512z"/>
<circle cx="174.075" cy="72.039" r="10.24"/>
<g>
</g>
<g>
</g>
<g>
</g>
<g>
</g>
<g>
</g>
<g>
</g>
<g>
</g>
<g>
</g>
<g>
</g>
<g>
</g>
<g>
</g>
<g>
</g>
<g>
</g>
<g>
</g>
<g>
</g>
</svg>
